<svg width="25" height="25" viewBox="0 0 25 25" fill="none" xmlns="http://www.w3.org/2000/svg">
<g clip-path="url(#clip0_918_1776)">
<path d="M12.25 18.1562C12.8713 18.1562 13.375 17.6526 13.375 17.0312C13.375 16.4099 12.8713 15.9062 12.25 15.9062C11.6287 15.9062 11.125 16.4099 11.125 17.0312C11.125 17.6526 11.6287 18.1562 12.25 18.1562Z" fill="#205924"/>
<path d="M12.25 13.6562V12.9062C13.9066 12.9062 15.25 11.7306 15.25 10.2812C15.25 8.83187 13.9066 7.65625 12.25 7.65625C10.5934 7.65625 9.25 8.83187 9.25 10.2812V10.6562" stroke="#205924" stroke-width="2" stroke-linecap="round" stroke-linejoin="round"/>
<path d="M12.25 21.1562C17.2206 21.1562 21.25 17.1268 21.25 12.1562C21.25 7.18569 17.2206 3.15625 12.25 3.15625C7.27944 3.15625 3.25 7.18569 3.25 12.1562C3.25 17.1268 7.27944 21.1562 12.25 21.1562Z" stroke="#205924" stroke-width="2" stroke-linecap="round" stroke-linejoin="round"/>
</g>
<defs>
<clipPath id="clip0_918_1776">
<rect width="24" height="24" fill="white" transform="translate(0.25 0.15625)"/>
</clipPath>
</defs>
</svg>
